<?xml version="1.0" encoding="UTF-8"?>
<svg xmlns="http://www.w3.org/2000/svg" version="1.1" viewBox="0 0 26 26">
  <defs>
    <style>
      .cls-1, .cls-2, .cls-3 {
        fill: #a4e500;
      }

      .cls-4 {
        fill: #a4e500;
      }

      .cls-2 {
        stroke-width: .25px;
      }

      .cls-2, .cls-3, .cls-5 {
        stroke: #000;
        stroke-linecap: round;
        stroke-linejoin: round;
      }

      .cls-3, .cls-5 {
        stroke-width: .5px;
      }

      .cls-5, .cls-6 {
        fill: #b7b7b7;
      }

      .cls-7 {
        fill: #bcbcbc;
      }
    </style>
  </defs>
  <!-- Generator: Adobe Illustrator 28.6.0, SVG Export Plug-In . SVG Version: 1.2.0 Build 709)  -->
  <g>
    <g id="Layer_1">
      <g>
        <g id="Layer_1-2" data-name="Layer_1">
          <g>
            <circle cx="10.32" cy="8.54" r="1.7"/>
            <circle cx="16.26" cy="8.54" r="1.7"/>
            <g id="Layer_1-2">
              <g id="Layer_1-2-2" data-name="Layer_1-2">
                <g id="Layer_1-2-2">
                  <path class="cls-4" d="M16.98,8.25c-.27.2-.43.56-.36.79.03.08.07.14.13.16.04.03.09.03.14.03.11,0,.23-.05.36-.14.27-.2.43-.56.36-.81-.03-.08-.07-.14-.13-.16-.13-.06-.31-.03-.49.11h0v.02s-.01,0-.01,0Z"/>
                  <g>
                    <path class="cls-6" d="M23.12,12.63c-.84-.54-1.64-.51-1.65-.5h-.02v.02s.34.93.29,1.72c-.02.35-.22,1.1-.8,1.63-.6.55-1.44.68-2.42.38-1.98-.6-2.82,1.11-3.38,1.66-.13.12-.23.24-.33.3-.44.33-1.01.53-1.52.5h-.04c-.51,0-1.09-.17-1.52-.5-.11-.09-.22-.19-.33-.3-.56-.55-1.4-2.26-3.38-1.66-.98.29-1.82.17-2.42-.38-.59-.53-.77-1.27-.8-1.63-.05-.78.29-1.72.29-1.72v-.02h-.02s-.8-.04-1.65.5c-1.41.9-1.88,2.71-2.03,4.05-.21,1.91.14,3.56,1,4.78.91,1.31,2.39,2.08,3.95,2.08,1.17,0,2.01-.34,2.9-.7,1.02-.4,2.17-.87,4.01-.89h.04c1.84,0,3,.48,4.01.89.89.35,1.74.7,2.9.7,1.56,0,3.04-.78,3.95-2.08.86-1.23,1.21-2.89,1-4.78-.26-2.45-1.25-3.55-2.03-4.05h0Z"/>
                    <path d="M22.86,13.04c-.41-.29-.9-.54-1.35-.77-.01-.01-.02.01.06-.05l-.09.04h-.02l.12-.12c0,.05,0-.02,0-.02,1.12,2.74-.75,4.88-3.58,3.92-1.46-.22-2.1,1.29-3,2.06-1.03.82-2.65.76-3.63-.13-.85-.78-1.33-1.87-2.54-1.86-.57,0-1.12.29-1.71.28-1.37.11-2.57-1.14-2.6-2.48-.03-.62.26-1.41.44-1.76l.12.12c-1.81.43-2.55,2.06-2.75,3.75-.7,4.82,2.29,8.12,7,5.75,2.75-1.17,6.19-.86,8.79.48,3.39,1.67,6.63-1.02,6.47-4.63,0-1.72-.39-3.63-1.73-4.55h0s0-.03,0-.03ZM23.38,12.22c3.26,2.27,3.29,8.49.18,10.92-1.64,1.39-4.17,1.52-6.07.73-.94-.34-1.69-.67-2.52-.82-2.85-.73-5.05.9-7.84,1.44-4.91.67-7.8-4.52-6.44-8.82.41-1.92,2.22-4.14,4.38-3.66.07,0,.13.05.12.12-.45,1.51,0,3.59,1.9,3.55.59,0,1.12-.29,1.73-.27.68,0,1.34.32,1.79.76.48.42.79.97,1.17,1.29.74.71,2.02.76,2.85.12.56-.42,1.05-1.39,1.95-1.83.86-.52,1.92-.09,2.75.03.82.1,1.61-.35,1.99-1.11.43-.74.26-1.66,0-2.49-.02-.06,0-.13.06-.15l.06-.03h.02l-.09.04c.62-.33,1.41-.17,2,.18,0,0,.01,0,.01,0Z"/>
                  </g>
                  <g>
                    <path class="cls-7" d="M7.24,14.11c.34.17.83.14,1.4.1,1.01-.06,2.26-.14,3.02.98.45.67.96,1.02,1.52,1.02h.16c.55,0,1.07-.34,1.52-1.02.75-1.12,2.01-1.04,3.02-.98.57.03,1.07.06,1.4-.1.45-.23.75-.61.87-1.06.1-.42.07-.87-.1-1.33-.25-.65-1.44-1.92-2.03-2.45-.09-.08-.16-.11-.21-.09-.07.03-.1.14-.15.24-.02.06-.04.11-.07.16-.14.28-.49.54-.81.5-.17,0-.41-.13-.55-.51-.2-.53-.22-1.03-.03-1.43.23-.51.68-.75.94-.73.16,0,.27-.03.32-.14.06-.13.03-.29.02-.3,0,0-.08-.29-.28-.53-.19-.23-.53-.45-1.07-.3-.98.29-1.32,1.45-1.37,1.62-.27-.13-.94-.14-1.47-.14h-.03c-.53,0-1.21,0-1.47.14-.04-.17-.39-1.34-1.37-1.62-.55-.16-.89.08-1.07.3-.2.24-.28.51-.28.53,0,0-.04.17.02.3.05.1.16.15.32.14.25-.03.72.23.94.73.17.4.16.9-.03,1.43-.15.4-.39.5-.55.51-.34.03-.68-.23-.81-.5-.03-.05-.04-.11-.07-.16-.03-.11-.08-.22-.15-.24-.05-.03-.12,0-.21.09-.58.54-1.78,1.81-2.03,2.45-.17.47-.22.92-.1,1.33,0,0,.44.83.88,1.06,0,0-.04,0-.04,0Z"/>
                    <path d="M7.39,13.82c.66.17,1.57-.13,2.32-.11.92-.08,2.05.44,2.55,1.24.37.5.8.73,1.36.55.67-.31.97-1.28,1.79-1.59,1.31-.64,2.57,0,3.69-.24,1.85-1.1-.25-3.16-1.22-4.16-.04-.04-.07-.07-.09-.08-.02-.03-.01.03.14-.01h-.03c.1-.04.07-.05.06-.02-.14.51-.73,1.16-1.45.9-.95-.59-.99-2.12-.2-2.86.21-.18.45-.36.83-.35.07,0,.05-.02,0,.03-.02.03,0,0,0,0v-.03s-.03-.07.01.04l-.02-.06c-.17-.5-.55-.76-1.06-.53-.51.22-.85.85-1.16,1.41-.06.1-.2.12-.28.04-.8-.44-2.01-.24-2.86,0-.11.02-.21-.06-.24-.16-.15-1.01-1.62-2.17-2.12-.83,0,.01-.01.05-.02.06,0-.02,0,.06,0-.07v.09s0,.12-.03.04c-.06-.07-.08-.04-.02-.04,1.3.06,1.69,1.61,1.24,2.59-.38,1.16-1.76.77-2-.16-.01-.04-.02-.08-.03-.1,0-.02-.03-.01.05.02h-.03c.11.03.15-.02.13,0,0,0-.04.04-.08.07-.9.93-2.43,2.05-2.02,3.49l-.02-.05c.21.31.5.73.81.89h0ZM7.09,14.4c-2.3-1.7-.25-3.85,1.17-5.28.13-.12.25-.29.55-.18.07.02.2.17.22.22.08.32.4.74.74.61.42-.26.47-1.5-.02-1.84-.12-.11-.29-.18-.35-.16-.16,0-.44,0-.62-.27-.15-.27-.11-.42-.08-.61v.09c.01-.19,0-.07.03-.17.79-2.02,2.95-.64,3.27.91l-.33-.15c.56-.23,1.07-.02,1.62-.05.56.03.98-.08,1.57.03l-.34.15c.15-1.89,2.7-2.79,3.26-.87.21.5-.2,1-.65.92-.08-.02-.25.05-.38.16-.53.36-.47,1.61,0,1.89.19.1.6-.16.67-.46.06-.17.14-.35.29-.41.41-.14.56.22.81.39.75.78,1.62,1.47,1.98,2.55.33.93,0,2.15-.94,2.63-1.19.56-2.62-.07-3.58.51-.7.41-.92,1.35-1.82,1.69-.57.23-1.12.25-1.71.02-.74-.31-1.11-.92-1.49-1.45-1.02-1.1-2.56-.3-3.86-.87h-.01Z"/>
                  </g>
                  <path class="cls-4" d="M9.29,9.11c.12.09.25.14.36.14.05,0,.1,0,.14-.03.06-.03.11-.09.13-.16.07-.24-.1-.59-.36-.81-.17-.14-.36-.17-.49-.11-.06.03-.11.09-.13.16-.07.24.1.59.36.81,0,0-.01,0-.01,0Z"/>
                  <path class="cls-5" d="M11.76,5.61h2.8c.07,0,.13-.1.13-.2v-2.52c0-.08-.03-.15-.08-.19s-.1-.02-.13.03l-.6.77s-.09.05-.13,0l-.56-.81h-.05l-.56.81s-.09.06-.13,0l-.6-.77s-.09-.06-.13-.03c-.05.03-.08.1-.08.19v2.52c0,.12.06.2.13.2h0Z"/>
                </g>
              </g>
            </g>
          </g>
        </g>
        <g id="Layer_2">
          <g id="Layer_1-3">
            <g id="Layer_1-2-2-2" data-name="Layer_1-2-2">
              <g id="Layer_1-2-2-2">
                <path class="cls-4" d="M16.98,8.25c-.27.2-.43.56-.36.79.03.08.07.14.13.16.04.03.09.03.14.03.11,0,.23-.05.36-.14.27-.2.43-.56.36-.81-.03-.08-.07-.14-.13-.16-.13-.06-.31-.03-.49.11h0v.02s-.01,0-.01,0Z"/>
                <g>
                  <path class="cls-4" d="M23.12,12.63c-.84-.54-1.64-.51-1.65-.5h-.02v.02s.34.93.29,1.72c-.02.35-.22,1.1-.8,1.63-.6.55-1.44.68-2.42.38-1.98-.6-2.82,1.11-3.38,1.66-.13.12-.23.24-.33.3-.44.33-1.01.53-1.52.5h-.04c-.51,0-1.09-.17-1.52-.5-.11-.09-.22-.19-.33-.3-.56-.55-1.4-2.26-3.38-1.66-.98.29-1.82.17-2.42-.38-.59-.53-.77-1.27-.8-1.63-.05-.78.29-1.72.29-1.72v-.02h-.02s-.8-.04-1.65.5c-1.41.9-1.88,2.71-2.03,4.05-.21,1.91.14,3.56,1,4.78.91,1.31,2.39,2.08,3.95,2.08,1.17,0,2.01-.34,2.9-.7,1.02-.4,2.17-.87,4.01-.89h.04c1.84,0,3,.48,4.01.89.89.35,1.74.7,2.9.7,1.56,0,3.04-.78,3.95-2.08.86-1.23,1.21-2.89,1-4.78-.26-2.45-1.25-3.55-2.03-4.05h0Z"/>
                  <path d="M22.86,13.04c-.41-.29-.9-.54-1.35-.77-.01-.01-.02.01.06-.05l-.09.04h-.02l.12-.12c0,.05,0-.02,0-.02,1.12,2.74-.75,4.88-3.58,3.92-1.46-.22-2.1,1.29-3,2.06-1.03.82-2.65.76-3.63-.13-.85-.78-1.33-1.87-2.54-1.86-.57,0-1.12.29-1.71.28-1.37.11-2.57-1.14-2.6-2.48-.03-.62.26-1.41.44-1.76l.12.12c-1.81.43-2.55,2.06-2.75,3.75-.7,4.82,2.29,8.12,7,5.75,2.75-1.17,6.19-.86,8.79.48,3.39,1.67,6.63-1.02,6.47-4.63,0-1.72-.39-3.63-1.73-4.55h0s0-.03,0-.03ZM23.38,12.22c3.26,2.27,3.29,8.49.18,10.92-1.64,1.39-4.17,1.52-6.07.73-.94-.34-1.69-.67-2.52-.82-2.85-.73-5.05.9-7.84,1.44-4.91.67-7.8-4.52-6.44-8.82.41-1.92,2.22-4.14,4.38-3.66.07,0,.13.05.12.12-.45,1.51,0,3.59,1.9,3.55.59,0,1.12-.29,1.73-.27.68,0,1.34.32,1.79.76.48.42.79.97,1.17,1.29.74.71,2.02.76,2.85.12.56-.42,1.05-1.39,1.95-1.83.86-.52,1.92-.09,2.75.03.82.1,1.61-.35,1.99-1.11.43-.74.26-1.66,0-2.49-.02-.06,0-.13.06-.15l.06-.03h.02l-.09.04c.62-.33,1.41-.17,2,.18,0,0,.01,0,.01,0Z"/>
                </g>
                <g>
                  <path class="cls-4" d="M7.24,14.11c.34.17.83.14,1.4.1,1.01-.06,2.26-.14,3.02.98.45.67.96,1.02,1.52,1.02h.16c.55,0,1.07-.34,1.52-1.02.75-1.12,2.01-1.04,3.02-.98.57.03,1.07.06,1.4-.1.45-.23.75-.61.87-1.06.1-.42.07-.87-.1-1.33-.25-.65-1.44-1.92-2.03-2.45-.09-.08-.16-.11-.21-.09-.07.03-.1.14-.15.24-.02.06-.04.11-.07.16-.14.28-.49.54-.81.5-.17,0-.41-.13-.55-.51-.2-.53-.22-1.03-.03-1.43.23-.51.68-.75.94-.73.16,0,.27-.03.32-.14.06-.13.03-.29.02-.3,0,0-.08-.29-.28-.53-.19-.23-.53-.45-1.07-.3-.98.29-1.32,1.45-1.37,1.62-.27-.13-.94-.14-1.47-.14h-.03c-.53,0-1.21,0-1.47.14-.04-.17-.39-1.34-1.37-1.62-.55-.16-.89.08-1.07.3-.2.24-.28.51-.28.53,0,0-.04.17.02.3.05.1.16.15.32.14.25-.03.72.23.94.73.17.4.16.9-.03,1.43-.15.4-.39.5-.55.51-.34.03-.68-.23-.81-.5-.03-.05-.04-.11-.07-.16-.03-.11-.08-.22-.15-.24-.05-.03-.12,0-.21.09-.58.54-1.78,1.81-2.03,2.45-.17.47-.22.92-.1,1.33,0,0,.44.83.88,1.06,0,0-.04,0-.04,0Z"/>
                  <path d="M7.39,13.82c.66.17,1.57-.13,2.32-.11.92-.08,2.05.44,2.55,1.24.37.5.8.73,1.36.55.67-.31.97-1.28,1.79-1.59,1.31-.64,2.57,0,3.69-.24,1.85-1.1-.25-3.16-1.22-4.16-.04-.04-.07-.07-.09-.08-.02-.03-.01.03.14-.01h-.03c.1-.04.07-.05.06-.02-.14.51-.73,1.16-1.45.9-.95-.59-.99-2.12-.2-2.86.21-.18.45-.36.83-.35.07,0,.05-.02,0,.03-.02.03,0,0,0,0v-.03s-.03-.07.01.04l-.02-.06c-.17-.5-.55-.76-1.06-.53-.51.22-.85.85-1.16,1.41-.06.1-.2.12-.28.04-.8-.44-2.01-.24-2.86,0-.11.02-.21-.06-.24-.16-.15-1.01-1.62-2.17-2.12-.83,0,.01-.01.05-.02.06,0-.02,0,.06,0-.07v.09s0,.12-.03.04c-.06-.07-.08-.04-.02-.04,1.3.06,1.69,1.61,1.24,2.59-.38,1.16-1.76.77-2-.16-.01-.04-.02-.08-.03-.1,0-.02-.03-.01.05.02h-.03c.11.03.15-.02.13,0,0,0-.04.04-.08.07-.9.93-2.43,2.05-2.02,3.49l-.02-.05c.21.31.5.73.81.89h0ZM7.09,14.4c-2.3-1.7-.25-3.85,1.17-5.28.13-.12.25-.29.55-.18.07.02.2.17.22.22.08.32.4.74.74.61.42-.26.47-1.5-.02-1.84-.12-.11-.29-.18-.35-.16-.16,0-.44,0-.62-.27-.15-.27-.11-.42-.08-.61v.09c.01-.19,0-.07.03-.17.79-2.02,2.95-.64,3.27.91l-.33-.15c.56-.23,1.07-.02,1.62-.05.56.03.98-.08,1.57.03l-.34.15c.15-1.89,2.7-2.79,3.26-.87.21.5-.2,1-.65.92-.08-.02-.25.05-.38.16-.53.36-.47,1.61,0,1.89.19.1.6-.16.67-.46.06-.17.14-.35.29-.41.41-.14.56.22.81.39.75.78,1.62,1.47,1.98,2.55.33.93,0,2.15-.94,2.63-1.19.56-2.62-.07-3.58.51-.7.41-.92,1.35-1.82,1.69-.57.23-1.12.25-1.71.02-.74-.31-1.11-.92-1.49-1.45-1.02-1.1-2.56-.3-3.86-.87h-.01Z"/>
                </g>
                <path class="cls-1" d="M9.29,9.11c.12.09.25.14.36.14.05,0,.1,0,.14-.03.06-.03.11-.09.13-.16.07-.24-.1-.59-.36-.81-.17-.14-.36-.17-.49-.11-.06.03-.11.09-.13.16-.07.24.1.59.36.81,0,0-.01,0-.01,0Z"/>
                <path class="cls-3" d="M11.76,5.61h2.8c.07,0,.13-.1.13-.2v-2.52c0-.08-.03-.15-.08-.19s-.1-.02-.13.03l-.6.77s-.09.05-.13,0l-.56-.81h-.05l-.56.81s-.09.06-.13,0l-.6-.77s-.09-.06-.13-.03c-.05.03-.08.1-.08.19v2.52c0,.12.06.2.13.2h0Z"/>
              </g>
            </g>
          </g>
        </g>
      </g>
      <circle class="cls-2" cx="12.26" cy="12.95" r=".11"/>
      <circle class="cls-2" cx="14.31" cy="12.95" r=".11"/>
    </g>
  </g>
</svg>